<?xml version="1.0" encoding="UTF-8"?>
<!DOCTYPE svg PUBLIC "-//W3C//DTD SVG 1.1//EN" "http://www.w3.org/Graphics/SVG/1.1/DTD/svg11.dtd">
<svg xmlns="http://www.w3.org/2000/svg" version="1.1" width="31px" height="29px" style="shape-rendering:geometricPrecision; text-rendering:geometricPrecision; image-rendering:optimizeQuality; fill-rule:evenodd; clip-rule:evenodd" xmlns:xlink="http://www.w3.org/1999/xlink">
<g><path style="opacity:0.8" fill="#a2a1a1" d="M 12.5,-0.5 C 13.8333,-0.5 15.1667,-0.5 16.5,-0.5C 20.0195,2.18438 23.8529,4.51771 28,6.5C 27.0662,11.039 26.5662,15.7057 26.5,20.5C 27.5,20.5 28.5,20.5 29.5,20.5C 29.5,23.1667 29.5,25.8333 29.5,28.5C 28.8333,28.5 28.1667,28.5 27.5,28.5C 27.1667,25.8333 26.8333,25.8333 26.5,28.5C 20.5,28.5 14.5,28.5 8.5,28.5C 7.83333,27.1667 7.16667,27.1667 6.5,28.5C 6.16667,28.5 5.83333,28.5 5.5,28.5C 4.83333,27.1667 4.16667,27.1667 3.5,28.5C 2.16667,28.5 0.833333,28.5 -0.5,28.5C -0.5,25.8333 -0.5,23.1667 -0.5,20.5C 0.5,20.5 1.5,20.5 2.5,20.5C 2.5,17.1667 2.5,13.8333 2.5,10.5C 1.5,10.5 0.5,10.5 -0.5,10.5C -0.5,9.16667 -0.5,7.83333 -0.5,6.5C 4.3195,4.9259 8.65284,2.59256 12.5,-0.5 Z M 12.5,3.5 C 21.3975,4.0636 25.0642,8.73027 23.5,17.5C 17.5,17.5 11.5,17.5 5.5,17.5C 5.17964,14.1016 5.51298,10.7683 6.5,7.5C 8.91064,6.63889 10.9106,5.30556 12.5,3.5 Z"/></g>
<g><path style="opacity:0.82" fill="#a2a1a1" d="M 9.5,8.5 C 12.8333,8.5 16.1667,8.5 19.5,8.5C 19.5,11.1667 19.5,13.8333 19.5,16.5C 16.1667,16.5 12.8333,16.5 9.5,16.5C 9.5,13.8333 9.5,11.1667 9.5,8.5 Z"/></g>
</svg>
