<?xml version="1.0" encoding="UTF-8"?>
<!DOCTYPE svg PUBLIC "-//W3C//DTD SVG 1.1//EN" "http://www.w3.org/Graphics/SVG/1.1/DTD/svg11.dtd">
<svg xmlns="http://www.w3.org/2000/svg" version="1.1" width="75px" height="74px" style="shape-rendering:geometricPrecision; text-rendering:geometricPrecision; image-rendering:optimizeQuality; fill-rule:evenodd; clip-rule:evenodd" xmlns:xlink="http://www.w3.org/1999/xlink">
<g><path style="opacity:0.567" fill="#7d7053" d="M 56.5,-0.5 C 62.5,-0.5 68.5,-0.5 74.5,-0.5C 74.5,4.5 74.5,9.5 74.5,14.5C 72.3337,30.4753 64.0004,42.1419 49.5,49.5C 48.7382,53.1111 48.2382,56.7778 48,60.5C 42.126,63.4024 35.9593,65.4024 29.5,66.5C 29.6658,61.8215 29.4992,57.1548 29,52.5C 26.1667,49.6667 23.3333,46.8333 20.5,44C 17.1454,43.4541 13.8121,43.6208 10.5,44.5C 8.71387,44.3038 7.38054,43.4705 6.5,42C 8.72127,37.3393 10.5546,32.5059 12,27.5C 15.7949,25.4383 19.9615,24.2716 24.5,24C 31.3028,10.687 41.9695,2.52037 56.5,-0.5 Z M 48.5,15.5 C 56.6681,16.4986 59.1681,20.832 56,28.5C 49.103,32.9757 44.603,31.1424 42.5,23C 43.2336,19.4382 45.2336,16.9382 48.5,15.5 Z"/></g>
<g><path style="opacity:0.562" fill="#7d7052" d="M 47.5,17.5 C 54.1623,16.9973 56.6623,19.9973 55,26.5C 51.7512,30.3673 48.4179,30.3673 45,26.5C 43.9271,22.9003 44.7605,19.9003 47.5,17.5 Z"/></g>
<g><path style="opacity:0.562" fill="#7c6e52" d="M 8.5,73.5 C 7.83333,73.5 7.16667,73.5 6.5,73.5C 6.93467,70.404 7.43467,67.404 8,64.5C 5.27313,65.7979 2.4398,66.7979 -0.5,67.5C -0.5,66.8333 -0.5,66.1667 -0.5,65.5C 2.9703,60.5081 6.30363,55.3414 9.5,50C 16.431,48.05 21.2643,50.55 24,57.5C 24.6667,59.1667 24.6667,60.8333 24,62.5C 18.8544,66.3114 13.6877,69.9781 8.5,73.5 Z"/></g>
</svg>
