<?xml version="1.0" encoding="UTF-8"?>
<!DOCTYPE svg PUBLIC "-//W3C//DTD SVG 1.1//EN" "http://www.w3.org/Graphics/SVG/1.1/DTD/svg11.dtd">
<svg xmlns="http://www.w3.org/2000/svg" version="1.1" width="26px" height="28px" style="shape-rendering:geometricPrecision; text-rendering:geometricPrecision; image-rendering:optimizeQuality; fill-rule:evenodd; clip-rule:evenodd" xmlns:xlink="http://www.w3.org/1999/xlink">
<g><path style="opacity:0.902" fill="#a2a1a1" d="M 4.5,-0.5 C 6.16667,-0.5 7.83333,-0.5 9.5,-0.5C 9.53944,0.583168 9.87277,1.58317 10.5,2.5C 9.25279,4.32298 8.58613,6.32298 8.5,8.5C 11.1667,8.5 13.8333,8.5 16.5,8.5C 16.5,9.5 16.5,10.5 16.5,11.5C 13.7531,11.1866 11.0865,11.52 8.5,12.5C 11.8333,13.1667 15.1667,13.8333 18.5,14.5C 19.6094,16.3853 20.4427,18.3853 21,20.5C 22.4705,21.2666 23.9705,21.9332 25.5,22.5C 25.5,22.8333 25.5,23.1667 25.5,23.5C 23.8621,24.1589 22.1955,24.8256 20.5,25.5C 19.2011,24.91 18.3678,23.91 18,22.5C 16.6484,24.749 14.8151,26.4156 12.5,27.5C 10.1667,27.5 7.83333,27.5 5.5,27.5C 3.16667,25.8333 1.16667,23.8333 -0.5,21.5C -0.5,18.8333 -0.5,16.1667 -0.5,13.5C 0.558761,11.4446 2.22543,10.1112 4.5,9.5C 3.78782,6.07487 3.78782,2.74153 4.5,-0.5 Z M 4.5,9.5 C 5.21004,11.8927 5.87671,14.3927 6.5,17C 10.3113,16.9165 13.6446,17.7499 16.5,19.5C 14.4156,21.7442 11.9156,23.4108 9,24.5C 5.27537,23.6088 3.1087,21.2755 2.5,17.5C 3.76199,14.978 4.42865,12.3113 4.5,9.5 Z"/></g>
</svg>
